<svg width="171" height="81" viewBox="0 0 171 81" fill="none" xmlns="http://www.w3.org/2000/svg">
<path d="M59.5 40.5C59.5 61.428 46.2575 76.5 32 76.5C17.7425 76.5 4.5 61.428 4.5 40.5C4.5 19.572 17.7425 4.5 32 4.5C46.2575 4.5 59.5 19.572 59.5 40.5Z" fill="#D9D9D9" stroke="black" stroke-width="9"/>
<path d="M166.5 40.5C166.5 61.428 153.257 76.5 139 76.5C124.743 76.5 111.5 61.428 111.5 40.5C111.5 19.572 124.743 4.5 139 4.5C153.257 4.5 166.5 19.572 166.5 40.5Z" fill="#D9D9D9" stroke="black" stroke-width="9"/>
<line x1="32" y1="4.5" x2="139" y2="4.5" stroke="black" stroke-width="9"/>
<line x1="32" y1="76.5" x2="139" y2="76.5" stroke="black" stroke-width="9"/>
<circle cx="103.5" cy="16.5" r="3.5" fill="black"/>
<circle cx="103.5" cy="64.5" r="3.5" fill="black"/>
<circle cx="43.5" cy="46.5" r="3.5" fill="black"/>
<circle cx="28.5" cy="23.5" r="3.5" fill="black"/>
<circle cx="89.5" cy="26.5" r="3.5" fill="black"/>
<circle cx="146.5" cy="36.5" r="3.5" fill="black"/>
<circle cx="82.5" cy="50.5" r="3.5" fill="black"/>
</svg>
